<svg width="11" height="9" viewBox="0 0 11 9" fill="none" xmlns="http://www.w3.org/2000/svg">
<path opacity="0.3" fill-rule="evenodd" clip-rule="evenodd" d="M0.654297 6.00002V1.83335C0.654297 0.912879 1.40049 0.166687 2.32096 0.166687H8.98763C9.9081 0.166687 10.6543 0.912879 10.6543 1.83335V6.00002C10.6543 6.9205 9.9081 7.66669 8.98763 7.66669H2.41741L1.52182 8.52388C1.20381 8.82825 0.67609 8.60286 0.67609 8.16267V6.27024C0.661752 6.18229 0.654297 6.09202 0.654297 6.00002ZM4.00008 3.08335C4.00008 2.85323 4.18663 2.66669 4.41675 2.66669H8.58342C8.81353 2.66669 9.00008 2.85323 9.00008 3.08335C9.00008 3.31347 8.81353 3.50002 8.58342 3.50002H4.41675C4.18663 3.50002 4.00008 3.31347 4.00008 3.08335ZM6.91675 4.33335C6.68663 4.33335 6.50008 4.5199 6.50008 4.75002C6.50008 4.98014 6.68663 5.16669 6.91675 5.16669H8.58342C8.81353 5.16669 9.00008 4.98014 9.00008 4.75002C9.00008 4.5199 8.81354 4.33335 8.58342 4.33335H6.91675Z" fill="#1BC5BD"/>
</svg>
