<svg width="8" height="8" viewBox="0 0 8 8" fill="none" xmlns="http://www.w3.org/2000/svg">
<path opacity="0.3" fill-rule="evenodd" clip-rule="evenodd" d="M4.2023 5.38072C4.52774 5.70616 5.05537 5.70616 5.38081 5.38072C5.70625 5.05529 5.70625 4.52765 5.38081 4.20221L4.2023 3.0237C3.87686 2.69827 3.34922 2.69827 3.02379 3.0237C2.69835 3.34914 2.69835 3.87678 3.02379 4.20221L4.2023 5.38072ZM6.8034 1.94629C7.26364 1.94629 7.63673 1.57319 7.63673 1.11296C7.63673 0.652719 7.26364 0.279623 6.8034 0.279623L5.13673 0.279623C4.6765 0.279623 4.3034 0.652719 4.3034 1.11296C4.3034 1.57319 4.6765 1.94629 5.13673 1.94629L6.8034 1.94629ZM1.25602 7.49367C1.71626 7.49367 2.08936 7.12057 2.08936 6.66033V4.99367C2.08936 4.53343 1.71626 4.16034 1.25602 4.16034C0.795785 4.16034 0.42269 4.53343 0.42269 4.99367L0.42269 6.66034C0.42269 7.12057 0.795785 7.49367 1.25602 7.49367Z" fill="#F64E60"/>
</svg>
