<svg width="7" height="16" viewBox="0 0 7 16" fill="none" xmlns="http://www.w3.org/2000/svg">
<path fill-rule="evenodd" clip-rule="evenodd" d="M1.3335 0.5C0.781211 0.5 0.333496 0.947715 0.333496 1.5V14.5C0.333496 15.0523 0.781211 15.5 1.3335 15.5H1.83349C2.38578 15.5 2.83349 15.0523 2.83349 14.5V1.5C2.83349 0.947715 2.38578 0.5 1.8335 0.5H1.3335ZM5.50016 0.5C4.94788 0.5 4.50016 0.947715 4.50016 1.5V14.5C4.50016 15.0523 4.94788 15.5 5.50016 15.5H6.00016C6.55245 15.5 7.00016 15.0523 7.00016 14.5V1.5C7.00016 0.947715 6.55245 0.5 6.00016 0.5H5.50016Z" fill="#8950FC"/>
</svg>
