<svg width="8" height="8" viewBox="0 0 8 8" fill="none" xmlns="http://www.w3.org/2000/svg">
<path opacity="0.3" fill-rule="evenodd" clip-rule="evenodd" d="M2.51802 3.69669C2.19258 3.37125 2.19258 2.84361 2.51802 2.51818C2.84345 2.19274 3.37109 2.19274 3.69653 2.51818L4.87504 3.69669C5.20048 4.02212 5.20048 4.54976 4.87504 4.8752C4.5496 5.20063 4.02197 5.20063 3.69653 4.8752L2.51802 3.69669ZM5.95245 1.09559C5.95245 0.63535 6.32555 0.262254 6.78578 0.262254C7.24602 0.262254 7.61912 0.63535 7.61912 1.09559L7.61912 2.76225C7.61912 3.22249 7.24602 3.59559 6.78578 3.59559C6.32555 3.59559 5.95245 3.22249 5.95245 2.76225V1.09559ZM0.405073 6.64296C0.405073 6.18273 0.778168 5.80963 1.23841 5.80963L2.90507 5.80963C3.36531 5.80963 3.73841 6.18273 3.73841 6.64296C3.73841 7.1032 3.36531 7.4763 2.90507 7.4763L1.23841 7.4763C0.778169 7.4763 0.405073 7.1032 0.405073 6.64296Z" fill="#F64E60"/>
</svg>
