<svg width="32" height="36" viewBox="0 0 32 36" fill="none" xmlns="http://www.w3.org/2000/svg">
<path opacity="0.3" fill-rule="evenodd" clip-rule="evenodd" d="M0 2C0 0.895431 0.895431 0 2 0H30C31.1046 0 32 0.895431 32 2V34C32 35.1046 31.1046 36 30 36H2C0.895431 36 0 35.1046 0 34V2ZM2 4.5C2 4.22386 2.22386 4 2.5 4H5.5C5.77614 4 6 4.22386 6 4.5V7.5C6 7.77614 5.77614 8 5.5 8H2.5C2.22386 8 2 7.77614 2 7.5V4.5ZM26.5 4C26.2239 4 26 4.22386 26 4.5V7.5C26 7.77614 26.2239 8 26.5 8H29.5C29.7761 8 30 7.77614 30 7.5V4.5C30 4.22386 29.7761 4 29.5 4H26.5ZM2 12.5C2 12.2239 2.22386 12 2.5 12H5.5C5.77614 12 6 12.2239 6 12.5V15.5C6 15.7761 5.77614 16 5.5 16H2.5C2.22386 16 2 15.7761 2 15.5V12.5ZM26.5 12C26.2239 12 26 12.2239 26 12.5V15.5C26 15.7761 26.2239 16 26.5 16H29.5C29.7761 16 30 15.7761 30 15.5V12.5C30 12.2239 29.7761 12 29.5 12H26.5ZM2 20.5C2 20.2239 2.22386 20 2.5 20H5.5C5.77614 20 6 20.2239 6 20.5V23.5C6 23.7761 5.77614 24 5.5 24H2.5C2.22386 24 2 23.7761 2 23.5V20.5ZM26.5 20C26.2239 20 26 20.2239 26 20.5V23.5C26 23.7761 26.2239 24 26.5 24H29.5C29.7761 24 30 23.7761 30 23.5V20.5C30 20.2239 29.7761 20 29.5 20H26.5ZM26 28.5C26 28.2239 26.2239 28 26.5 28H29.5C29.7761 28 30 28.2239 30 28.5V31.5C30 31.7761 29.7761 32 29.5 32H26.5C26.2239 32 26 31.7761 26 31.5V28.5ZM2.5 28C2.22386 28 2 28.2239 2 28.5V31.5C2 31.7761 2.22386 32 2.5 32H5.5C5.77614 32 6 31.7761 6 31.5V28.5C6 28.2239 5.77614 28 5.5 28H2.5Z" fill="white"/>
</svg>
