<svg width="104" height="39" viewBox="0 0 104 39" fill="none" xmlns="http://www.w3.org/2000/svg">
<path opacity="0.3" fill-rule="evenodd" clip-rule="evenodd" d="M0.730158 18.7837C0.119895 19.344 0.119896 20.2523 0.730159 20.8126L20.087 38.5827C20.6972 39.143 21.6867 39.143 22.2969 38.5827L41.6537 20.8126C42.264 20.2523 42.264 19.344 41.6537 18.7837L22.2969 1.01356C21.6866 0.453323 20.6972 0.453324 20.087 1.01357L0.730158 18.7837ZM61.7302 18.7837C61.1199 19.344 61.1199 20.2523 61.7302 20.8126L81.087 38.5827C81.6972 39.143 82.6866 39.143 83.2969 38.5827L102.654 20.8126C103.264 20.2523 103.264 19.344 102.654 18.7837L83.2969 1.01357C82.6866 0.453326 81.6972 0.453327 81.087 1.01357L61.7302 18.7837Z" fill="#F65464"/>
</svg>
