<svg width="10" height="24" viewBox="0 0 10 24" fill="none" xmlns="http://www.w3.org/2000/svg">
<path fill-rule="evenodd" clip-rule="evenodd" d="M0.691048 3.71358C0.104937 4.29905 0.104937 5.24827 0.691048 5.83373L3.67952 8.81889C4.26563 9.40436 5.21591 9.40436 5.80202 8.81889L8.79049 5.83373C9.3766 5.24827 9.3766 4.29905 8.79049 3.71358L5.80202 0.728418C5.2159 0.142956 4.26563 0.142957 3.67952 0.728419L0.691048 3.71358ZM0.691048 18.1536C0.104937 18.739 0.104937 19.6883 0.691048 20.2737L3.67952 23.2589C4.26563 23.8444 5.21591 23.8444 5.80202 23.2589L8.79049 20.2737C9.3766 19.6883 9.3766 18.739 8.79049 18.1536L5.80202 15.1684C5.2159 14.583 4.26563 14.583 3.67952 15.1684L0.691048 18.1536Z" fill="#6993FF"/>
</svg>
