<svg width="80" height="37" viewBox="0 0 80 37" fill="none" xmlns="http://www.w3.org/2000/svg">
<path opacity="0.3" fill-rule="evenodd" clip-rule="evenodd" d="M18.375 36.5C8.71002 36.5 0.875 28.4411 0.875 18.5C0.875 8.55888 8.71002 0.5 18.375 0.5C28.04 0.5 35.875 8.55888 35.875 18.5C35.875 28.4411 28.04 36.5 18.375 36.5ZM58.75 36.5C58.1977 36.5 57.75 36.0523 57.75 35.5V23H45.625C45.0727 23 44.625 22.5523 44.625 22V15C44.625 14.4477 45.0727 14 45.625 14H57.75V1.5C57.75 0.947716 58.1977 0.5 58.75 0.5H65.5C66.0523 0.5 66.5 0.947715 66.5 1.5V14H78.625C79.1773 14 79.625 14.4477 79.625 15V22C79.625 22.5523 79.1773 23 78.625 23H66.5V35.5C66.5 36.0523 66.0523 36.5 65.5 36.5H58.75Z" fill="#8A50FC"/>
</svg>
