<svg width="24" height="10" viewBox="0 0 24 10" fill="none" xmlns="http://www.w3.org/2000/svg">
<path opacity="0.3" fill-rule="evenodd" clip-rule="evenodd" d="M0.46302 3.93358C-0.12309 4.51905 -0.12309 5.46827 0.463021 6.05373L3.45149 9.0389C4.0376 9.62436 4.98788 9.62436 5.57399 9.0389L8.56246 6.05373C9.14857 5.46827 9.14857 4.51905 8.56246 3.93358L5.57399 0.948419C4.98788 0.362957 4.0376 0.362958 3.45149 0.94842L0.46302 3.93358ZM14.919 3.93358C14.3329 4.51905 14.3329 5.46827 14.919 6.05373L17.9075 9.0389C18.4936 9.62436 19.4439 9.62436 20.03 9.0389L23.0185 6.05373C23.6046 5.46827 23.6046 4.51905 23.0185 3.93358L20.03 0.948419C19.4439 0.362957 18.4936 0.362958 17.9075 0.94842L14.919 3.93358Z" fill="#6993FF"/>
</svg>
