<svg width="32" height="32" viewBox="0 0 32 32" fill="none" xmlns="http://www.w3.org/2000/svg">
<path opacity="0.3" fill-rule="evenodd" clip-rule="evenodd" d="M18 1.5C18 0.671573 18.6716 0 19.5 0H30.5C31.3284 0 32 0.671573 32 1.5V12.5C32 13.3284 31.3284 14 30.5 14H19.5C18.6716 14 18 13.3284 18 12.5V1.5ZM0 19.5C0 18.6716 0.671573 18 1.5 18H12.5C13.3284 18 14 18.6716 14 19.5V30.5C14 31.3284 13.3284 32 12.5 32H1.5C0.671573 32 0 31.3284 0 30.5V19.5ZM19.5 18C18.6716 18 18 18.6716 18 19.5V30.5C18 31.3284 18.6716 32 19.5 32H30.5C31.3284 32 32 31.3284 32 30.5V19.5C32 18.6716 31.3284 18 30.5 18H19.5Z" fill="#B5B5C3"/>
</svg>
