<svg width="43" height="95" viewBox="0 0 43 95" fill="none" xmlns="http://www.w3.org/2000/svg">
<path fill-rule="evenodd" clip-rule="evenodd" d="M1.23016 18.7837C0.619896 19.344 0.619894 20.2523 1.23016 20.8126L20.587 38.5827C21.1972 39.143 22.1867 39.143 22.7969 38.5827L42.1537 20.8126C42.764 20.2523 42.764 19.344 42.1537 18.7837L22.7969 1.01357C22.1867 0.453324 21.1972 0.453323 20.587 1.01356L1.23016 18.7837ZM1.23016 74.7837C0.619896 75.344 0.619897 76.2523 1.23016 76.8125L20.587 94.5827C21.1972 95.143 22.1867 95.143 22.7969 94.5827L42.1537 76.8125C42.764 76.2523 42.764 75.344 42.1537 74.7837L22.7969 57.0136C22.1867 56.4533 21.1972 56.4533 20.587 57.0136L1.23016 74.7837Z" fill="#F65464"/>
</svg>
