<svg width="20" height="20" viewBox="0 0 20 20" fill="none" xmlns="http://www.w3.org/2000/svg">
<path opacity="0.3" fill-rule="evenodd" clip-rule="evenodd" d="M11.2717 2.17666C11.2717 1.34823 11.9433 0.676659 12.7717 0.676659H18.2044C19.0328 0.676659 19.7044 1.34823 19.7044 2.17666V7.59999C19.7044 8.42842 19.0328 9.09999 18.2044 9.09999H12.7717C11.9433 9.09999 11.2717 8.42842 11.2717 7.59999V2.17666ZM0.429688 13.0067C0.429688 12.1782 1.10126 11.5067 1.92969 11.5067H7.36235C8.19078 11.5067 8.86235 12.1782 8.86235 13.0067V18.43C8.86235 19.2584 8.19078 19.93 7.36235 19.93H1.92969C1.10126 19.93 0.429688 19.2584 0.429688 18.43V13.0067ZM12.7717 11.5067C11.9433 11.5067 11.2717 12.1782 11.2717 13.0067V18.43C11.2717 19.2584 11.9433 19.93 12.7717 19.93H18.2044C19.0328 19.93 19.7044 19.2584 19.7044 18.43V13.0067C19.7044 12.1782 19.0328 11.5067 18.2044 11.5067H12.7717Z" fill="#6993FF"/>
</svg>
