<svg width="14" height="14" viewBox="0 0 14 14" fill="none" xmlns="http://www.w3.org/2000/svg">
<path opacity="0.3" d="M7.60016 0.333313C7.96835 0.333313 8.26683 0.63179 8.26683 0.99998C8.26683 1.36817 7.96835 1.66665 7.60016 1.66665H3.00016C2.26378 1.66665 1.66683 2.2636 1.66683 2.99998V11C1.66683 11.7364 2.26378 12.3333 3.00016 12.3333H11.0002C11.7365 12.3333 12.3335 11.7364 12.3335 11V7.66665C12.3335 7.29846 12.632 6.99998 13.0002 6.99998C13.3684 6.99998 13.6668 7.29846 13.6668 7.66665V11C13.6668 12.4727 12.4729 13.6666 11.0002 13.6666H3.00016C1.5274 13.6666 0.333496 12.4727 0.333496 11V2.99998C0.333496 1.52722 1.5274 0.333313 3.00016 0.333313H7.60016Z" fill="#3699FF"/>
</svg>
