<svg width="14" height="14" viewBox="0 0 14 14" fill="none" xmlns="http://www.w3.org/2000/svg">
<path opacity="0.3" d="M7.60016 0.333252C7.96835 0.333252 8.26683 0.631729 8.26683 0.999919C8.26683 1.36811 7.96835 1.66659 7.60016 1.66659H3.00016C2.26378 1.66659 1.66683 2.26354 1.66683 2.99992V10.9999C1.66683 11.7363 2.26378 12.3333 3.00016 12.3333H11.0002C11.7365 12.3333 12.3335 11.7363 12.3335 10.9999V7.66659C12.3335 7.2984 12.632 6.99992 13.0002 6.99992C13.3684 6.99992 13.6668 7.2984 13.6668 7.66659V10.9999C13.6668 12.4727 12.4729 13.6666 11.0002 13.6666H3.00016C1.5274 13.6666 0.333496 12.4727 0.333496 10.9999V2.99992C0.333496 1.52716 1.5274 0.333252 3.00016 0.333252H7.60016Z" fill="#3699FF"/>
</svg>
